<svg class="swoon-logo" data-name="Layer 1" xmlns="http://www.w3.org/2000/svg" xmlns:xlink="http://www.w3.org/1999/xlink" viewBox="0 0 606.37 113.99"><defs><mask id="1d1094f2-999c-4f2a-9a3b-e9b48e0d23fb" x="0" y="1.98" width="74.88" height="112.01" maskUnits="userSpaceOnUse"><g transform="translate(0 0.05)"><g id="1db4d01b-8bc1-4956-ae4d-47ac63b72302" data-name="mask-2"><polygon id="ab0d1812-9298-4554-b34e-651a8ac9571a" data-name="path-1" points="74.88 113.94 0 113.94 0 1.92 74.88 1.92 74.88 113.94" style="fill:#fff"/></g></g></mask><mask id="bfccfcef-2100-420e-b081-f9e3bc5179d6" x="60.27" y="0" width="126.94" height="113.1" maskUnits="userSpaceOnUse"><g transform="translate(0 0.05)"><g id="5869f7c6-c62c-44aa-9222-41cd8d716451" data-name="mask-4"><polygon id="9ecc74a9-da1f-46d6-b599-88127632fd69" data-name="path-3" points="187.21 -0.05 60.27 -0.05 60.27 113.05 187.21 113.05 187.21 -0.05" style="fill:#fff"/></g></g></mask></defs><title>logo</title><g id="e0b0b83b-8938-4c0d-9bde-2129c78283b0" data-name="Swoonist-Concept-A"><g id="154937c2-94fe-4bc7-8cf0-acd59a53b19b" data-name="Swoonist-Home"><g id="956846da-b367-4b85-b8f6-4658d46895bb" data-name="Group-3"><g id="1d3fec41-06c5-40d5-a197-cb6151189142" data-name="Page-1"><path id="81fff2f8-1a99-4d10-8285-cbc6906a0390" data-name="Fill-1" d="M419.23,110.45l-43.1-88.77c.42,12.32.56,26.21.56,37.29v51.48h-15.5V2.81H383L426.55,92.2c-.28-12.17-.42-26.52-.42-37.6V8.66l15.22-5.85.14,107.64Z" transform="translate(0 0.05)"/><polygon id="16076bbb-4be4-471f-9a82-c4543e1a498e" data-name="Fill-3" points="446.31 110.5 446.31 2.86 461.81 8.71 461.81 110.5 446.31 110.5"/><path id="ec540fc9-fd71-4d5e-82a3-12c0c18d2e9f" data-name="Fill-5" d="M535.78,33.39l-16.06-3.9c-1.13-12.32-7.61-15.76-18.87-15.76-9.16,0-16.34,4.68-16.34,14.82,0,10.45,5.78,15.29,20.85,19.19,21.41,5.46,31.56,15.6,31.56,33.54,0,19.5-15.64,31.36-34.51,31.36-22.26,0-36.49-11.7-38.46-33.38L480,83.15c2.54,13.26,11,16.38,22.4,16.38,10.14,0,18.17-6.08,18.17-15.91,0-11.23-5.92-17-21.69-21.06-18.45-4.84-30.71-12.48-30.71-31.2,0-19,15.35-30.73,33.53-30.73,21.55,0,32.12,14,34.09,32.76" transform="translate(0 0.05)"/><g id="7eca0c6f-55b1-45a6-867f-c24d6fa4876d" data-name="Group-9"><polygon id="27aaf483-31d2-44f2-a59c-9cb89a3cba33" data-name="Fill-7" points="578.29 16.43 578.29 110.5 562.93 110.5 562.93 16.43 534.86 16.43 534.86 2.86 606.37 2.86 606.37 16.43 578.29 16.43"/></g><path id="a3d9afa1-ccfc-431d-97d7-4ad6443db43a" data-name="Fill-10" d="M251.75,58.2c1.5-26.79-8.09-43.42-25.66-44.4S197,28.27,195.49,55.06c-1.5,26.64,8.09,43.42,25.79,44.41s29-14.63,30.47-41.27m15.47.86c-1.86,33.18-19,55-46.68,53.49S178.16,87.37,180,54.2c1.87-33.33,19-55,46.81-53.48s42.27,25,40.4,58.35" transform="translate(0 0.05)"/><path id="6ad63f8b-acdc-41bf-9a8e-61b9a65986f5" data-name="Fill-12" d="M340.29,55.51c-1.08-26.81-12.22-42.45-29.8-41.75s-27.57,17.18-26.5,44c1.07,26.66,12.22,42.45,29.94,41.74s27.44-17.33,26.37-44m15.49-.62c1.33,33.2-13.64,56.59-41.33,57.69s-44.62-21-45.95-54.22C267.17,25,282.14,1.77,310,.67s44.48,20.87,45.82,54.23" transform="translate(0 0.05)"/><g id="1421a3f7-3642-4565-9d88-7ef532d3a17a" data-name="Group-16"><g style="mask:url(#1d1094f2-999c-4f2a-9a3b-e9b48e0d23fb)"><path id="c602b3aa-f203-40fc-83d7-b73f12c99234" data-name="Fill-14" d="M74.88,30l-16.14,3.9C57.62,21.59,48.46,15,37.19,15,28,15,20.85,19.71,20.85,29.85,20.85,40.3,26.63,45.14,41.7,49c21.41,5.46,31.56,15.6,31.56,33.54,0,19.5-15.64,31.36-34.51,31.36C16.48,113.94-2.56,98.75.28,74.7l15.91,4.55c2.54,13.26,11.14,21.58,22.55,21.58,10.14,0,18.17-6.08,18.17-15.91,0-11.23-5.91-17-21.69-21.06C16.76,59,4.51,51.38,4.51,32.66c0-19,15.36-30.73,33.53-30.73,21.55,0,34.87,9.37,36.85,28.09" transform="translate(0 0.05)"/></g></g><g id="49bfa889-a1ec-4a5c-9825-3cc49f21252c" data-name="Group-19"><g style="mask:url(#bfccfcef-2100-420e-b081-f9e3bc5179d6)"><polygon id="cdfa19c5-b07b-44d9-a42a-bdfb4aefb8fd" data-name="Fill-17" points="161.11 113.1 141.66 113.1 123.3 48.1 109.59 113.1 90.01 113.1 60.27 36.66 76.5 32.76 99.17 93.6 113.37 26.52 132.43 20.8 150.69 87.1 171.03 5.46 187.21 0 161.11 113.1"/></g></g></g></g></g></g></svg>